<svg xmlns="http://www.w3.org/2000/svg" width="24" height="24" viewBox="0 0 24 24" fill="none" stroke="currentColor" stroke-width="2" stroke-linecap="round" stroke-linejoin="round" aria-hidden="true">
	<path d="M2 12C2 6.5 6 4 12 4s10 2.5 10 8" />
	<path d="M5 20a17 17 0 0 1-1.5-7c0-2.5 1-4 3-5" />
	<path d="M8 19a14 14 0 0 1-1-6 5 5 0 0 1 10 0c0 1 0 2 .2 3" />
	<path d="M12 13a18 18 0 0 0 1.5 7" />
	<path d="M12 9a4 4 0 0 0-4 4c0 1.5.2 2.7.5 4" />
	<path d="M19.5 16a14 14 0 0 0 .5-4" />
</svg>
